inDegrees=no
num_controls=7
num_derivatives=13
num_iterations=204
num_multipliers=7
num_parameters=0
num_slacks=7
num_states=26
objective=6.378704
objective_accelerations=0.577749
objective_balance=0.067286
objective_effort=0.507118
objective_height=5.154272
objective_ligament=0.072279
solver_duration=1740.493673
status=Solve_Succeeded
success=true
DataType=double
version=3
OpenSimVersion=4.4-2022-07-23-0e9fedc
endheader
time	/jointset/ground_pelvis/pelvis_tilt/value	/jointset/ground_pelvis/pelvis_tx/value	/jointset/ground_pelvis/pelvis_ty/value	/jointset/hip_r/hip_flexion_r/value	/jointset/hip_r/hip_adduction_r/value	/jointset/hip_r/hip_rotation_r/value	/jointset/back/lumbar_extension/value	/jointset/patellofemoral_r/patellar_flexion_r/value	/jointset/knee_r/knee_flexion_r/value	/jointset/knee_r/knee_adduction_r/value	/jointset/knee_r/knee_rotation_r/value	/jointset/ankle_r/ankle_angle_r/value	/jointset/subtalar_r/subtalar_angle_r/value	/jointset/ground_pelvis/pelvis_tilt/speed	/jointset/ground_pelvis/pelvis_tx/speed	/jointset/ground_pelvis/pelvis_ty/speed	/jointset/hip_r/hip_flexion_r/speed	/jointset/hip_r/hip_adduction_r/speed	/jointset/hip_r/hip_rotation_r/speed	/jointset/back/lumbar_extension/speed	/jointset/patellofemoral_r/patellar_flexion_r/speed	/jointset/knee_r/knee_flexion_r/speed	/jointset/knee_r/knee_adduction_r/speed	/jointset/knee_r/knee_rotation_r/speed	/jointset/ankle_r/ankle_angle_r/speed	/jointset/subtalar_r/subtalar_angle_r/speed	/forceset/tau_hip_flexion_r	/forceset/tau_hip_adduction_r	/forceset/tau_hip_rotation_r	/forceset/tau_knee_flexion_r	/forceset/tau_ankle_angle_r	/forceset/tau_subtalar_angle_r	/forceset/tau_lumbar_extension	lambda_cid13_p0	lambda_cid14_p0	lambda_cid14_p1	lambda_cid14_p2	lambda_cid14_p3	lambda_cid14_p4	lambda_cid14_p5	/jointset/ground_pelvis/pelvis_tilt/accel	/jointset/ground_pelvis/pelvis_tx/accel	/jointset/ground_pelvis/pelvis_ty/accel	/jointset/hip_r/hip_flexion_r/accel	/jointset/hip_r/hip_adduction_r/accel	/jointset/hip_r/hip_rotation_r/accel	/jointset/back/lumbar_extension/accel	/jointset/patellofemoral_r/patellar_flexion_r/accel	/jointset/knee_r/knee_flexion_r/accel	/jointset/knee_r/knee_adduction_r/accel	/jointset/knee_r/knee_rotation_r/accel	/jointset/ankle_r/ankle_angle_r/accel	/jointset/subtalar_r/subtalar_angle_r/accel	gamma_cid13_p0	gamma_cid14_p0	gamma_cid14_p1	gamma_cid14_p2	gamma_cid14_p3	gamma_cid14_p4	gamma_cid14_p5
1.5	-0.170493015344957	0.0417962861040426	0.8435068425363367	0.8208846803929737	-0.2413350210707764	-0.1050120835051719	-0.289035995950703	0.7492092633726702	0.7492092633726707	0.06429934718300656	0.1745202495234664	0.267696809990872	0.04222620971915993	0.3972031700285528	0.1644280816023278	0.4405098757672997	-1.880151354354128	0.03547363117507173	-0.4136743525489954	0.7002971445408422	-2.015334034057123	-2.015334034057127	0.1866586001563576	6.543992607932172e-05	-0.6229232944696728	-0.1168402701486049	-0.1060356810963058	-0.01734005639935625	0.01274448778754093	-0.3268814654153378	0.0519506072828237	-0.008402154281747936	0.1487309327207365	-28.47185437366987	-24.28945060317903	-3.90456956886002	-3.483520693049511	3.470189154253237	-652.9153791785466	57.96257120886919	0.1997663136522888	0.365043214584978	-0.5707035469743617	-0.8891248792251815	0.1226631781222769	-0.3614902663422235	1.393422387140814	-1.228670176103925	-1.228670176103925	0.5156098759440924	-0.02940232728161159	-0.6347074445870023	0.0576699778542009	1.656041788186648e-07	1.110293647587218e-07	-1.604591021812499e-06	8.832537529206366e-07	1.062212695728354e-07	2.196547636341985e-07	-1.159509868157407e-06
1.51	-0.1665113035611739	0.04345859210310028	0.8478824955226372	0.8020407077210179	-0.2409749658308899	-0.1091673029851389	-0.2819646844758704	0.728997072374429	0.7289970723744206	0.06619293343328403	0.1745209475629706	0.2614364171751291	0.04105972265824075	0.3990800156903204	0.1680060310912407	0.4345267355405041	-1.888380436627689	0.03653526428565262	-0.4173438237852973	0.713858080157008	-2.026814708684581	-2.026814708684571	0.1920553566770452	7.005205594084012e-05	-0.629062292379849	-0.1164381977113425	-0.09925357851945345	-0.01909176373690766	0.01221587697303768	-0.3233747127542134	0.05566497727369122	-0.009589243347271731	0.1426193130791748	-29.66762744645056	-22.92954491502668	-4.086408495514513	-3.563733366049529	3.048432712295482	-648.7265686201102	57.7574569675666	0.172778225798261	0.3501300262319728	-0.6261654287718152	-0.7503746521543941	0.09758515178808977	-0.365570493169182	1.321368608346879	-1.06438361686548	-1.064383616863382	0.5509990291135104	0.01493152483243739	-0.5895096282556734	0.03415144755661643	1.752595821737797e-07	1.183006264216556e-07	-1.71052387970255e-06	9.265533837032656e-07	1.09630698217366e-07	2.453736747062261e-07	-1.232581675798458e-06
1.52	-0.1625125964141074	0.04515586943908399	0.8521955078730216	0.7831223292761721	-0.2406043599050412	-0.1133583961656491	-0.2747609757529799	0.7086787511277465	0.7086787511277437	0.06814034534655926	0.174521599432133	0.2551174316474797	0.03989779143587325	0.400602242686483	0.171422348987537	0.4279817485841177	-1.895032508930572	0.03758376836671108	-0.4208490926574012	0.7267765941528959	-2.03656008374399	-2.036560083743966	0.1974237327570267	5.620585430009991e-05	-0.634641836850933	-0.1159291024383065	-0.09247147594262782	-0.02084347107445163	0.01168726615860291	-0.3198679600930948	0.05937934726456342	-0.01077633241278544	0.1365076934375868	-30.8481419009915	-21.57302431732774	-4.264059946987246	-3.650074240149547	2.618298704206799	-644.5990264488594	57.61765503294048	0.1288425805311004	0.3327168960618362	-0.6830728928925154	-0.5737228850899211	0.1200373722177853	-0.3286497935026187	1.264938063085144	-0.8816102624942549	-0.881610262494255	0.5099337878029264	-0.03309399358207554	-0.522816756768368	0.07907454500894548	1.842297836188657e-07	1.186163977943384e-07	-1.824844169923376e-06	9.455943543306406e-07	1.20454195242354e-07	2.539412593661863e-07	-1.300461344520221e-06
1.53	-0.1585005220996419	0.04688645742630575	0.8564403130946396	0.7641454656025495	-0.240223377821065	-0.1175839393187312	-0.2674313286669299	0.6882718081612244	0.6882718081612154	0.07014123098695633	0.1745222331202733	0.2487455091067551	0.03874145683452068	0.401752884744475	0.1746632087780445	0.4208927753337112	-1.900070829617644	0.03860942241336952	-0.4242302211358551	0.7390311847189106	-2.044528030456522	-2.044528030456507	0.2027483209348593	6.592125863954981e-05	-0.639644254879545	-0.1153197142360963	-0.08562620007543494	-0.02271417054271372	0.01112557352536531	-0.3165967060349197	0.06327599820985234	-0.01210442620602564	0.1303552642196863	-32.01145115304454	-20.17985015984992	-4.503066635447534	-3.719168770411502	2.19664190353957	-640.7104095669878	57.41264882151133	0.09922436856760261	0.3149944025734126	-0.7347397786745073	-0.42846485509165	0.09330926142312886	-0.3381862694092849	1.187473802407312	-0.7093543870227524	-0.7093543870241976	0.5427099456471486	0.01746803077190245	-0.4741482914078787	0.05437992566378193	1.924719580345461e-07	1.115419607336297e-07	-1.948076106995651e-06	9.388604985430585e-07	1.391551399215781e-07	2.442855597133252e-07	-1.362824365640241e-06
1.54	-0.1544787314945768	0.04864849878783762	0.8606116425362416	0.7451263030831325	-0.2398322432285124	-0.121842362135477	-0.2599827848254124	0.6677941922252935	0.6677941922252905	0.07219516023170207	0.1745228567071365	0.242326523592644	0.03759171790875767	0.402545500807868	0.1777130238495577	0.413286592580904	-1.903492278087757	0.03961427008135365	-0.4274250253900109	0.7505559452468588	-2.050694677624659	-2.050694677624654	0.2080324536276385	5.418559617918257e-05	-0.6440544315281653	-0.1146099673204175	-0.07878092420826795	-0.02458487001097155	0.01056388089217225	-0.3133254519767502	0.06717264915514472	-0.01343251999926001	0.124202835001761	-33.14403851614841	-18.7931907289441	-4.737956313665582	-3.794925708268303	1.773965404747049	-636.9317794884864	57.27953787660462	0.05723738161109788	0.2945079522631421	-0.7865147933726284	-0.2503484416984234	0.1158760964829127	-0.2913849486429789	1.118972055471729	-0.521350353615367	-0.521350353615367	0.5018426907922701	-0.03738420694203666	-0.4043684807698051	0.09914628770269242	2.008584646062018e-07	1.058208737244826e-07	-2.066223990463648e-06	9.368827516751162e-07	1.55674269417195e-07	2.380153389392628e-07	-1.422232252675103e-06
